# Blender 3.3.0
# www.blender.org
mtllib axes.mtl
o Cube.001
v -0.610365 1.002351 -1.270586
v -0.610365 0.973535 -1.270586
v -0.610365 1.002351 -0.333526
v -0.610365 0.973535 -0.333526
v -0.639181 1.002351 -1.270586
v -0.639181 0.973535 -1.270586
v -0.639181 1.002351 -0.333526
v -0.639181 0.973535 -0.333526
v -0.610365 0.973535 -1.270586
v -0.639181 0.973535 -1.270586
v -0.610365 1.002351 -1.270586
v -0.639181 1.002351 -1.270586
v -0.601222 0.964391 -1.270586
v -0.648325 0.964391 -1.270586
v -0.601222 1.011494 -1.270586
v -0.648325 1.011494 -1.270586
v -0.624773 0.987943 -1.348102
v -0.624773 0.987943 -1.348102
v -0.624773 0.987943 -1.348102
v -0.624773 0.987943 -1.348102
vn -0.0000 1.0000 -0.0000
vn -0.0000 -0.0000 1.0000
vn -1.0000 -0.0000 -0.0000
vn -0.0000 -1.0000 -0.0000
vn 1.0000 -0.0000 -0.0000
vn -0.0000 -0.9568 -0.2907
vn -0.0000 0.9568 -0.2907
vn 0.9568 -0.0000 -0.2907
vn -0.9568 -0.0000 -0.2907
vt 0.625000 0.500000
vt 0.375000 0.500000
vt 0.625000 0.750000
vt 0.375000 0.750000
vt 0.625000 0.250000
vt 0.875000 0.500000
vt 0.375000 0.250000
vt 0.125000 0.500000
vt 0.875000 0.750000
vt 0.625000 1.000000
vt 0.625000 0.000000
vt 0.375000 0.000000
vt 0.375000 1.000000
vt 0.125000 0.750000
vt 0.375000 0.500000
vt 0.375000 0.250000
vt 0.125000 0.500000
vt 0.625000 0.500000
vt 0.875000 0.500000
vt 0.625000 0.250000
vt 0.375000 0.500000
vt 0.125000 0.500000
vt 0.375000 0.250000
vt 0.625000 0.500000
vt 0.875000 0.500000
vt 0.625000 0.250000
vt 0.375000 0.500000
vt 0.125000 0.500000
vt 0.375000 0.250000
vt 0.625000 0.500000
vt 0.875000 0.500000
vt 0.625000 0.250000
s 0
usemtl Material.002
f 5/6/1 3/3/1 1/1/1
f 3/3/2 8/13/2 4/4/2
f 7/11/3 6/7/3 8/12/3
f 2/2/4 8/14/4 6/8/4
f 1/1/5 4/4/5 2/2/5
f 6/7/1 12/20/1 10/16/1
f 12/20/2 14/23/2 10/16/2
f 2/2/1 10/17/1 9/15/1
f 5/6/1 11/18/1 12/19/1
f 1/1/1 9/15/1 11/18/1
f 13/21/1 18/28/1 17/27/1
f 10/17/2 13/21/2 9/15/2
f 11/18/2 16/25/2 12/19/2
f 9/15/2 15/24/2 11/18/2
f 18/29/1 19/30/1 17/27/1
f 16/25/1 19/30/1 20/31/1
f 15/24/1 17/27/1 19/30/1
f 14/23/1 20/32/1 18/29/1
f 5/6/1 7/9/1 3/3/1
f 3/3/2 7/10/2 8/13/2
f 7/11/3 5/5/3 6/7/3
f 2/2/4 4/4/4 8/14/4
f 1/1/5 3/3/5 4/4/5
f 6/7/1 5/5/1 12/20/1
f 12/20/2 16/26/2 14/23/2
f 2/2/1 6/8/1 10/17/1
f 5/6/1 1/1/1 11/18/1
f 1/1/1 2/2/1 9/15/1
f 13/21/6 14/22/6 18/28/6
f 10/17/2 14/22/2 13/21/2
f 11/18/2 15/24/2 16/25/2
f 9/15/2 13/21/2 15/24/2
f 18/29/1 20/32/1 19/30/1
f 16/25/7 15/24/7 19/30/7
f 15/24/8 13/21/8 17/27/8
f 14/23/9 16/26/9 20/32/9
o Cube.003
v -0.435733 0.769719 -1.303811
v -0.435733 0.740903 -1.303811
v -0.435733 0.769719 -0.381022
v -0.435733 0.740903 -0.381022
v -0.464548 0.769719 -1.303811
v -0.464548 0.740903 -1.303811
v -0.464548 0.769719 -0.381022
v -0.464548 0.740903 -0.381022
v -0.435733 0.740903 -1.303811
v -0.464548 0.740903 -1.303811
v -0.435733 0.769719 -1.303811
v -0.464548 0.769719 -1.303811
v -0.426589 0.731760 -1.303811
v -0.473692 0.731760 -1.303811
v -0.426589 0.778863 -1.303811
v -0.473692 0.778863 -1.303811
v -0.450140 0.755311 -1.381328
v -0.450140 0.755311 -1.381328
v -0.450140 0.755311 -1.381328
v -0.450140 0.755311 -1.381328
vn -0.0000 1.0000 -0.0000
vn -0.0000 -0.0000 1.0000
vn -1.0000 -0.0000 -0.0000
vn -0.0000 -1.0000 -0.0000
vn 1.0000 -0.0000 -0.0000
vn -0.0000 -0.9568 -0.2907
vn -0.0000 0.9568 -0.2907
vn 0.9568 -0.0000 -0.2907
vn -0.9568 -0.0000 -0.2907
vt 0.625000 0.500000
vt 0.375000 0.500000
vt 0.625000 0.750000
vt 0.375000 0.750000
vt 0.625000 0.250000
vt 0.875000 0.500000
vt 0.375000 0.250000
vt 0.125000 0.500000
vt 0.875000 0.750000
vt 0.625000 1.000000
vt 0.625000 0.000000
vt 0.375000 0.000000
vt 0.375000 1.000000
vt 0.125000 0.750000
vt 0.375000 0.500000
vt 0.375000 0.250000
vt 0.125000 0.500000
vt 0.625000 0.500000
vt 0.875000 0.500000
vt 0.625000 0.250000
vt 0.375000 0.500000
vt 0.125000 0.500000
vt 0.375000 0.250000
vt 0.625000 0.500000
vt 0.875000 0.500000
vt 0.625000 0.250000
vt 0.375000 0.500000
vt 0.125000 0.500000
vt 0.375000 0.250000
vt 0.625000 0.500000
vt 0.875000 0.500000
vt 0.625000 0.250000
s 0
usemtl Material.002
f 25/38/10 23/35/10 21/33/10
f 23/35/11 28/45/11 24/36/11
f 27/43/12 26/39/12 28/44/12
f 22/34/13 28/46/13 26/40/13
f 21/33/14 24/36/14 22/34/14
f 26/39/10 32/52/10 30/48/10
f 32/52/11 34/55/11 30/48/11
f 22/34/10 30/49/10 29/47/10
f 25/38/10 31/50/10 32/51/10
f 21/33/10 29/47/10 31/50/10
f 33/53/10 38/60/10 37/59/10
f 30/49/11 33/53/11 29/47/11
f 31/50/11 36/57/11 32/51/11
f 29/47/11 35/56/11 31/50/11
f 38/61/10 39/62/10 37/59/10
f 36/57/10 39/62/10 40/63/10
f 35/56/10 37/59/10 39/62/10
f 34/55/10 40/64/10 38/61/10
f 25/38/10 27/41/10 23/35/10
f 23/35/11 27/42/11 28/45/11
f 27/43/12 25/37/12 26/39/12
f 22/34/13 24/36/13 28/46/13
f 21/33/14 23/35/14 24/36/14
f 26/39/10 25/37/10 32/52/10
f 32/52/11 36/58/11 34/55/11
f 22/34/10 26/40/10 30/49/10
f 25/38/10 21/33/10 31/50/10
f 21/33/10 22/34/10 29/47/10
f 33/53/15 34/54/15 38/60/15
f 30/49/11 34/54/11 33/53/11
f 31/50/11 35/56/11 36/57/11
f 29/47/11 33/53/11 35/56/11
f 38/61/10 40/64/10 39/62/10
f 36/57/16 35/56/16 39/62/16
f 35/56/17 33/53/17 37/59/17
f 34/55/18 36/58/18 40/64/18
o Cube.004
v -0.248603 0.455027 -1.143321
v -0.248603 0.426212 -1.143321
v -0.248603 0.455027 -0.220532
v -0.248603 0.426212 -0.220532
v -0.277419 0.455027 -1.143321
v -0.277419 0.426212 -1.143321
v -0.277419 0.455027 -0.220532
v -0.277419 0.426212 -0.220532
v -0.248603 0.426212 -1.143321
v -0.277419 0.426212 -1.143321
v -0.248603 0.455027 -1.143321
v -0.277419 0.455027 -1.143321
v -0.239460 0.417068 -1.143321
v -0.286562 0.417068 -1.143321
v -0.239460 0.464171 -1.143321
v -0.286562 0.464171 -1.143321
v -0.263011 0.440620 -1.220838
v -0.263011 0.440620 -1.220838
v -0.263011 0.440620 -1.220838
v -0.263011 0.440620 -1.220838
vn -0.0000 1.0000 -0.0000
vn -0.0000 -0.0000 1.0000
vn -1.0000 -0.0000 -0.0000
vn -0.0000 -1.0000 -0.0000
vn 1.0000 -0.0000 -0.0000
vn -0.0000 -0.9568 -0.2907
vn -0.0000 0.9568 -0.2907
vn 0.9568 -0.0000 -0.2907
vn -0.9568 -0.0000 -0.2907
vt 0.625000 0.500000
vt 0.375000 0.500000
vt 0.625000 0.750000
vt 0.375000 0.750000
vt 0.625000 0.250000
vt 0.875000 0.500000
vt 0.375000 0.250000
vt 0.125000 0.500000
vt 0.875000 0.750000
vt 0.625000 1.000000
vt 0.625000 0.000000
vt 0.375000 0.000000
vt 0.375000 1.000000
vt 0.125000 0.750000
vt 0.375000 0.500000
vt 0.375000 0.250000
vt 0.125000 0.500000
vt 0.625000 0.500000
vt 0.875000 0.500000
vt 0.625000 0.250000
vt 0.375000 0.500000
vt 0.125000 0.500000
vt 0.375000 0.250000
vt 0.625000 0.500000
vt 0.875000 0.500000
vt 0.625000 0.250000
vt 0.375000 0.500000
vt 0.125000 0.500000
vt 0.375000 0.250000
vt 0.625000 0.500000
vt 0.875000 0.500000
vt 0.625000 0.250000
s 0
usemtl Material.002
f 45/70/19 43/67/19 41/65/19
f 43/67/20 48/77/20 44/68/20
f 47/75/21 46/71/21 48/76/21
f 42/66/22 48/78/22 46/72/22
f 41/65/23 44/68/23 42/66/23
f 46/71/19 52/84/19 50/80/19
f 52/84/20 54/87/20 50/80/20
f 42/66/19 50/81/19 49/79/19
f 45/70/19 51/82/19 52/83/19
f 41/65/19 49/79/19 51/82/19
f 53/85/19 58/92/19 57/91/19
f 50/81/20 53/85/20 49/79/20
f 51/82/20 56/89/20 52/83/20
f 49/79/20 55/88/20 51/82/20
f 58/93/19 59/94/19 57/91/19
f 56/89/19 59/94/19 60/95/19
f 55/88/19 57/91/19 59/94/19
f 54/87/19 60/96/19 58/93/19
f 45/70/19 47/73/19 43/67/19
f 43/67/20 47/74/20 48/77/20
f 47/75/21 45/69/21 46/71/21
f 42/66/22 44/68/22 48/78/22
f 41/65/23 43/67/23 44/68/23
f 46/71/19 45/69/19 52/84/19
f 52/84/20 56/90/20 54/87/20
f 42/66/19 46/72/19 50/81/19
f 45/70/19 41/65/19 51/82/19
f 41/65/19 42/66/19 49/79/19
f 53/85/24 54/86/24 58/92/24
f 50/81/20 54/86/20 53/85/20
f 51/82/20 55/88/20 56/89/20
f 49/79/20 53/85/20 55/88/20
f 58/93/19 60/96/19 59/94/19
f 56/89/25 55/88/25 59/94/25
f 55/88/26 53/85/26 57/91/26
f 54/87/27 56/90/27 60/96/27
o Axes
v 0.922789 0.014408 0.014408
v 0.014371 0.014408 0.014408
v 0.014371 -0.014408 0.014408
v 0.922789 0.014408 -0.014408
v 0.014371 0.014408 -0.014408
v 0.014371 -0.014408 -0.014408
v 0.922789 -0.014408 0.014408
v 0.922789 -0.014408 -0.014408
v 0.922789 -0.023551 0.023551
v 0.922789 -0.023551 -0.023551
v 0.922789 0.023551 0.023551
v 0.922789 0.023551 -0.023551
v 1.000306 0.000000 0.000000
v 0.014408 0.014408 -0.922789
v 0.014408 0.014408 0.000000
v 0.014408 -0.014408 0.000000
v -0.014408 0.014408 -0.922789
v -0.014408 0.014408 -0.000000
v -0.014408 -0.014408 -0.000000
v 0.014408 -0.014408 -0.922789
v -0.014408 -0.014408 -0.922789
v 0.023551 -0.023551 -0.922789
v -0.023551 -0.023551 -0.922789
v 0.023551 0.023551 -0.922789
v -0.023551 0.023551 -0.922789
v 0.000000 0.000000 -1.000306
v 0.014408 0.922789 0.014408
v 0.014408 0.014367 0.014408
v 0.014408 0.014367 -0.014408
v -0.014408 0.922789 0.014408
v -0.014408 0.014367 0.014408
v -0.014408 0.014367 -0.014408
v 0.014408 0.922789 -0.014408
v -0.014408 0.922789 -0.014408
v 0.023551 0.922789 -0.023551
v -0.023551 0.922789 -0.023551
v 0.023551 0.922789 0.023551
v -0.023551 0.922789 0.023551
v -0.000000 1.000306 0.000000
vn -0.0000 1.0000 -0.0000
vn -1.0000 -0.0000 -0.0000
vn -0.0000 -0.0000 -1.0000
vn -0.0000 -1.0000 -0.0000
vn -0.0000 -0.0000 1.0000
vn 0.2907 -0.9568 -0.0000
vn 0.2907 0.9568 -0.0000
vn 0.2907 -0.0000 0.9568
vn 0.2907 -0.0000 -0.9568
vn 1.0000 -0.0000 -0.0000
vn -0.0000 -0.9568 -0.2907
vn -0.0000 0.9568 -0.2907
vn 0.9568 -0.0000 -0.2907
vn -0.9568 -0.0000 -0.2907
vn -0.0000 0.2907 -0.9568
vn -0.0000 0.2907 0.9568
vn 0.9568 0.2907 -0.0000
vn -0.9568 0.2907 -0.0000
vt 0.314859 0.703058
vt 0.314859 0.703058
vt 0.314859 0.703058
vt 0.314859 0.703058
vt 0.314859 0.703058
vt 0.314859 0.703058
vt 0.314859 0.703058
vt 0.314859 0.703058
vt 0.314859 0.703058
vt 0.314859 0.703058
vt 0.314859 0.703058
vt 0.314859 0.703058
vt 0.314859 0.703058
vt 0.697086 0.195413
vt 0.697086 0.195413
vt 0.697086 0.195413
vt 0.697086 0.195413
vt 0.697086 0.195413
vt 0.697086 0.195413
vt 0.697086 0.195413
vt 0.697086 0.195413
vt 0.697086 0.195413
vt 0.697086 0.195413
vt 0.697086 0.195413
vt 0.697086 0.195413
vt 0.697086 0.195413
vt 0.315982 0.183469
vt 0.315982 0.197659
vt 0.301792 0.197659
vt 0.315982 0.169278
vt 0.330172 0.183469
vt 0.330172 0.197659
vt 0.315982 0.211849
vt 0.315982 0.155088
vt 0.301792 0.211849
vt 0.301792 0.155088
vt 0.287601 0.197659
vt 0.301792 0.183469
vt 0.301792 0.169278
vt 0.287601 0.183469
vt 0.301792 0.183469
vt 0.301792 0.169278
vt 0.287601 0.183469
vt 0.315982 0.183469
vt 0.330172 0.183469
vt 0.315982 0.169278
vt 0.308887 0.176373
s 0
usemtl Material.002
f 64/100/28 62/98/28 61/97/28
f 62/98/29 66/102/29 63/99/29
f 65/101/30 68/104/30 66/102/30
f 67/103/31 66/102/31 68/104/31
f 61/97/32 63/99/32 67/103/32
f 64/100/29 70/106/29 68/104/29
f 69/105/33 70/106/33 73/109/33
f 68/104/29 69/105/29 67/103/29
f 61/97/29 72/108/29 64/100/29
f 67/103/29 71/107/29 61/97/29
f 72/108/34 71/107/34 73/109/34
f 71/107/35 69/105/35 73/109/35
f 70/106/36 72/108/36 73/109/36
f 74/110/28 78/114/28 75/111/28
f 75/111/32 79/115/32 76/112/32
f 78/114/29 81/117/29 79/115/29
f 80/116/31 79/115/31 81/117/31
f 74/110/37 76/112/37 80/116/37
f 77/113/32 83/119/32 81/117/32
f 82/118/38 83/119/38 86/122/38
f 81/117/32 82/118/32 80/116/32
f 74/110/32 85/121/32 77/113/32
f 80/116/32 84/120/32 74/110/32
f 85/121/39 84/120/39 86/122/39
f 84/120/40 82/118/40 86/122/40
f 83/119/41 85/121/41 86/122/41
f 90/127/32 88/124/32 87/123/32
f 89/125/31 91/129/31 92/131/31
f 91/130/29 94/135/29 92/132/29
f 93/134/30 92/133/30 94/136/30
f 87/123/37 89/125/37 93/134/37
f 90/126/31 96/138/31 94/135/31
f 95/137/42 96/139/42 99/143/42
f 93/134/31 96/139/31 95/137/31
f 90/127/31 97/140/31 98/141/31
f 93/134/31 97/140/31 87/123/31
f 98/141/43 97/140/43 99/143/43
f 97/140/44 95/137/44 99/143/44
f 96/138/45 98/142/45 99/143/45
f 64/100/28 65/101/28 62/98/28
f 62/98/29 65/101/29 66/102/29
f 65/101/30 64/100/30 68/104/30
f 67/103/31 63/99/31 66/102/31
f 61/97/32 62/98/32 63/99/32
f 64/100/29 72/108/29 70/106/29
f 68/104/29 70/106/29 69/105/29
f 61/97/29 71/107/29 72/108/29
f 67/103/29 69/105/29 71/107/29
f 74/110/28 77/113/28 78/114/28
f 75/111/32 78/114/32 79/115/32
f 78/114/29 77/113/29 81/117/29
f 80/116/31 76/112/31 79/115/31
f 74/110/37 75/111/37 76/112/37
f 77/113/32 85/121/32 83/119/32
f 81/117/32 83/119/32 82/118/32
f 74/110/32 84/120/32 85/121/32
f 80/116/32 82/118/32 84/120/32
f 90/127/32 91/128/32 88/124/32
f 89/125/31 88/124/31 91/129/31
f 91/130/29 90/126/29 94/135/29
f 93/134/30 89/125/30 92/133/30
f 87/123/37 88/124/37 89/125/37
f 90/126/31 98/142/31 96/138/31
f 93/134/31 94/136/31 96/139/31
f 90/127/31 87/123/31 97/140/31
f 93/134/31 95/137/31 97/140/31
